# xmcd
#
# Track frame offsets: 
#        150
#        13928
#        28152
#        43352
#        55936
#        70944
#        91485
#        108517
#        120234
#        137399
#        153428
#        167893
#        186030
#        197631
#        211512
#        230060
#        242517
#        258530
#        271704
#        289657
#
# Disc length: 4021 seconds
#
# Revision: 0
# Processed by: cddbd v1.5.2PL0 Copyright (c) Steve Scherf et al.
# Submitted via: ExactAudioCopy v0.95b4
#
DISCID=1a0fb314
DTITLE=Nelso, Cash, Jennings, Kristofferson - The Highwayman Collectio
DTITLE=n
DYEAR=1900
DGENRE=Country
TTITLE0=Highwayman
TTITLE1=The Last Cowboy Song
TTITLE2=Jim, I Wore A Tie Today
TTITLE3=Big River
TTITLE4=Committed To Parkview
TTITLE5=Desperados Waiting For A Train
TTITLE6=Deportee (Plane Wreck At Los Gatos
TTITLE7=Welfare Line
TTITLE8=Against The Wind
TTITLE9=The Twentieth Century Is Almost Over
TTITLE10=Silver Stallion
TTITLE11=Born and Raised in Black and White
TTITLE12=Two Stories Wide
TTITLE13=Were All In Your Corner
TTITLE14=American Remains
TTITLE15=Anthem 84
TTITLE16=Angels Love Bad Men
TTITLE17=Songs That Make A Difference
TTITLE18=Living Legend
TTITLE19=Texas
EXTD=
EXTT0=
EXTT1=
EXTT2=
EXTT3=
EXTT4=
EXTT5=
EXTT6=
EXTT7=
EXTT8=
EXTT9=
EXTT10=
EXTT11=
EXTT12=
EXTT13=
EXTT14=
EXTT15=
EXTT16=
EXTT17=
EXTT18=
EXTT19=
PLAYORDER=
